<?xml version="1.0" encoding="utf-8"?>
<!-- Generator: Adobe Illustrator 25.4.1, SVG Export Plug-In . SVG Version: 6.00 Build 0)  -->
<svg version="1.1" id="Layer_1" xmlns="http://www.w3.org/2000/svg" xmlns:xlink="http://www.w3.org/1999/xlink" x="0px" y="0px"
	 viewBox="0 0 320 309" style="enable-background:new 0 0 320 309;" xml:space="preserve">
<style type="text/css">
	.st0{font-family:'ArialMT';}
	.st1{font-size:12px;}
	.st2{fill:#FFFFFF;stroke:#000000;stroke-width:2;}
	.st3{fill:#FFFFFF;stroke:#000000;stroke-width:2.0616;}
	.st4{fill:#FFFFFF;stroke:#000000;stroke-width:2.1126;}
</style>
<text transform="matrix(1 0 0 1 40 40)" class="st0 st1">Wednesday, 6 October</text>
<rect x="35" y="215" class="st2" width="80" height="70"/>
<text transform="matrix(1 0 0 1 40 230)" class="st0 st1">Team Door</text>
<text transform="matrix(1 0 0 1 40 242)" class="st0 st1">Olga</text>
<text transform="matrix(1 0 0 1 40 254)" class="st0 st1">Gabby</text>
<text transform="matrix(1 0 0 1 40 266)" class="st0 st1">Arthur</text>
<rect x="195" y="215" class="st3" width="85" height="70"/>
<text transform="matrix(1 0 0 1 200 230)" class="st0 st1">Team Window</text>
<text transform="matrix(1 0 0 1 200 242)" class="st0 st1">Wei</text>
<text transform="matrix(1 0 0 1 200 254)" class="st0 st1">Sophia</text>
<text transform="matrix(1 0 0 1 200 266)" class="st0 st1">Andres</text>
<rect x="195" y="55" class="st2" width="80" height="70"/>
<text transform="matrix(1 0 0 1 200 70)" class="st0 st1">Team Lectern</text>
<text transform="matrix(1 0 0 1 200 82)" class="st0 st1">Frances</text>
<text transform="matrix(1 0 0 1 200 94)" class="st0 st1">Kai</text>
<text transform="matrix(1 0 0 1 200 106)" class="st0 st1">Carmen</text>
<rect x="35" y="55" class="st4" width="106" height="70"/>
<text transform="matrix(1 0 0 1 40 70)" class="st0 st1">Team Whiteboard</text>
<text transform="matrix(1 0 0 1 40 82)" class="st0 st1">Pei</text>
<text transform="matrix(1 0 0 1 40 94)" class="st0 st1">Thao</text>
<text transform="matrix(1 0 0 1 40 106)" class="st0 st1">Lulu</text>
<text transform="matrix(1 0 0 1 40 118)" class="st0 st1">Chaorong</text>
<rect x="115" y="135" class="st2" width="80" height="70"/>
<text transform="matrix(1 0 0 1 120 150)" class="st0 st1">Team Center</text>
<text transform="matrix(1 0 0 1 120 162)" class="st0 st1">Karan</text>
<text transform="matrix(1 0 0 1 120 174)" class="st0 st1">Griffin</text>
<text transform="matrix(1 0 0 1 120 186)" class="st0 st1">Negin</text>
<text transform="matrix(1 0 0 1 40.5195 279.4644)" class="st0 st1">Ke</text>
</svg>
