<?xml version="1.0" encoding="UTF-8"?>
<svg xmlns="http://www.w3.org/2000/svg" xmlns:xlink="http://www.w3.org/1999/xlink"
     width="380" height="200" viewBox="0 -200 380 200">
<defs>
</defs>
<rect x="200" y="-172.0" width="117" height="70" fill="#ffffff" stroke-width="2" stroke="black" />
<text x="205" y="-155.0" font-size="12" fill="black" dy="0em">Team Whiteboard</text>
<text x="205" y="-143.0" font-size="12" fill="black" dy="0em">Matthew D</text>
<text x="205" y="-131.0" font-size="12" fill="black" dy="0em">Brady</text>
<text x="205" y="-119.0" font-size="12" fill="black" dy="0em">Matthew H</text>
<text x="205" y="-107.0" font-size="12" fill="black" dy="0em">Ian</text>
<rect x="5" y="-87.0" width="117" height="70" fill="#ffffff" stroke-width="2" stroke="black" />
<text x="10" y="-70.0" font-size="12" fill="black" dy="0em">Team Door</text>
<text x="10" y="-58.0" font-size="12" fill="black" dy="0em">Nima</text>
<text x="10" y="-46.0" font-size="12" fill="black" dy="0em">Jaewook</text>
<text x="10" y="-34.0" font-size="12" fill="black" dy="0em">Karan</text>
<text x="10" y="-22.0" font-size="12" fill="black" dy="0em">Jovan</text>
<rect x="250" y="-87.0" width="117" height="70" fill="#ffffff" stroke-width="2" stroke="black" />
<text x="255" y="-70.0" font-size="12" fill="black" dy="0em">Team Window</text>
<text x="255" y="-58.0" font-size="12" fill="black" dy="0em">Manuel</text>
<text x="255" y="-46.0" font-size="12" fill="black" dy="0em">Sai</text>
<text x="255" y="-34.0" font-size="12" fill="black" dy="0em">Yuna</text>
<text x="255" y="-22.0" font-size="12" fill="black" dy="0em">Lorenzo</text>
<rect x="35" y="-172.0" width="117" height="70" fill="#ffffff" stroke-width="2" stroke="black" />
<text x="40" y="-155.0" font-size="12" fill="black" dy="0em">Team Lectern</text>
<text x="40" y="-143.0" font-size="12" fill="black" dy="0em">Cameron L</text>
<text x="40" y="-131.0" font-size="12" fill="black" dy="0em">Nick</text>
<text x="40" y="-119.0" font-size="12" fill="black" dy="0em">Zhen</text>
<text x="40" y="-107.0" font-size="12" fill="black" dy="0em">Dayeon</text>
<rect x="125" y="-87.0" width="117" height="70" fill="#ffffff" stroke-width="2" stroke="black" />
<text x="130" y="-70.0" font-size="12" fill="black" dy="0em">Team Projector</text>
<text x="130" y="-58.0" font-size="12" fill="black" dy="0em">Cameron M</text>
<text x="130" y="-46.0" font-size="12" fill="black" dy="0em">Leon</text>
<text x="130" y="-34.0" font-size="12" fill="black" dy="0em">Savannah</text>
<text x="5" y="-180" font-size="12" fill="black" dy="0em">Thursday, 15 September</text>
</svg>