<?xml version="1.0" encoding="UTF-8"?>
<svg xmlns="http://www.w3.org/2000/svg" xmlns:xlink="http://www.w3.org/1999/xlink"
     width="380" height="200" viewBox="0 -200 380 200">
<defs>
</defs>
<rect x="200" y="-160.0" width="117" height="70" fill="#ffffff" stroke-width="2" stroke="black" />
<text x="205" y="-143.0" font-size="12" fill="black" dy="0em">Team Lectern</text>
<text x="205" y="-131.0" font-size="12" fill="black" dy="0em">Shaochong</text>
<text x="205" y="-119.0" font-size="12" fill="black" dy="0em">Max</text>
<text x="205" y="-107.0" font-size="12" fill="black" dy="0em">Wallace</text>
<text x="205" y="-95.0" font-size="12" fill="black" dy="0em">Katie</text>
<rect x="5" y="-75.0" width="120" height="70" fill="#ffffff" stroke-width="2" stroke="black" />
<text x="10" y="-58.0" font-size="12" fill="black" dy="0em">Team Back Corner</text>
<text x="10" y="-46.0" font-size="12" fill="black" dy="0em">Smith</text>
<text x="10" y="-34.0" font-size="12" fill="black" dy="0em">Ryan</text>
<text x="10" y="-22.0" font-size="12" fill="black" dy="0em">Jackson</text>
<text x="10" y="-10.0" font-size="12" fill="black" dy="0em">Izaac</text>
<rect x="250" y="-75.0" width="117" height="70" fill="#ffffff" stroke-width="2" stroke="black" />
<text x="255" y="-58.0" font-size="12" fill="black" dy="0em">Team Back Door</text>
<text x="255" y="-46.0" font-size="12" fill="black" dy="0em">Zhanzhiz</text>
<text x="255" y="-34.0" font-size="12" fill="black" dy="0em">Daniel</text>
<text x="255" y="-22.0" font-size="12" fill="black" dy="0em">Harrison</text>
<text x="255" y="-10.0" font-size="12" fill="black" dy="0em">Teddy</text>
<rect x="35" y="-160.0" width="117" height="70" fill="#ffffff" stroke-width="2" stroke="black" />
<text x="40" y="-143.0" font-size="12" fill="black" dy="0em">Team Front Door</text>
<text x="40" y="-131.0" font-size="12" fill="black" dy="0em">Christine</text>
<text x="40" y="-119.0" font-size="12" fill="black" dy="0em">Chris</text>
<text x="40" y="-107.0" font-size="12" fill="black" dy="0em">Catherine</text>
<text x="40" y="-95.0" font-size="12" fill="black" dy="0em">Jaden</text>
<text x="5" y="-180" font-size="12" fill="black" dy="0em">Friday, 6 May</text>
</svg>