<?xml version="1.0" encoding="UTF-8"?>
<svg xmlns="http://www.w3.org/2000/svg" xmlns:xlink="http://www.w3.org/1999/xlink"
     width="380" height="350" viewBox="0 -350 380 350">
<defs>
</defs>
<rect x="15" y="-122" width="120" height="65" fill="#ffffff" stroke-width="2" stroke="black" />
<text x="20" y="-110" font-size="12" fill="black" dy="0em">Team Door</text>
<text x="20" y="-98" font-size="12" fill="black" dy="0em">Jingcheng</text>
<text x="20" y="-86" font-size="12" fill="black" dy="0em">Luke</text>
<text x="20" y="-74" font-size="12" fill="black" dy="0em">Yonghan</text>
<text x="20" y="-62" font-size="12" fill="black" dy="0em">Justin</text>
<rect x="15" y="-195" width="117" height="53" fill="#ffffff" stroke-width="2" stroke="black" />
<text x="20" y="-183" font-size="12" fill="black" dy="0em">Team Clock</text>
<text x="20" y="-171" font-size="12" fill="black" dy="0em">Dylan</text>
<text x="20" y="-159" font-size="12" fill="black" dy="0em">Arvind</text>
<text x="20" y="-147" font-size="12" fill="black" dy="0em">Vincent</text>
<rect x="15" y="-292" width="121" height="65" fill="#ffffff" stroke-width="2" stroke="black" />
<text x="20" y="-280" font-size="12" fill="black" dy="0em">Team Whiteboards</text>
<text x="20" y="-268" font-size="12" fill="black" dy="0em">Ren</text>
<text x="20" y="-256" font-size="12" fill="black" dy="0em">Madison</text>
<text x="20" y="-244" font-size="12" fill="black" dy="0em">Luis</text>
<text x="20" y="-232" font-size="12" fill="black" dy="0em">Qingyuan</text>
<rect x="180" y="-122" width="135" height="65" fill="#ffffff" stroke-width="2" stroke="black" />
<text x="185" y="-110" font-size="12" fill="black" dy="0em">Team Motion Sensor</text>
<text x="185" y="-98" font-size="12" fill="black" dy="0em">Austin</text>
<text x="185" y="-86" font-size="12" fill="black" dy="0em">Nicholas</text>
<text x="185" y="-74" font-size="12" fill="black" dy="0em">John</text>
<text x="185" y="-62" font-size="12" fill="black" dy="0em">Abbey</text>
<rect x="180" y="-207" width="117" height="65" fill="#ffffff" stroke-width="2" stroke="black" />
<text x="185" y="-195" font-size="12" fill="black" dy="0em">Team Metal Disk</text>
<text x="185" y="-183" font-size="12" fill="black" dy="0em">Zhishun</text>
<text x="185" y="-171" font-size="12" fill="black" dy="0em">Caroline</text>
<text x="185" y="-159" font-size="12" fill="black" dy="0em">Rany</text>
<text x="185" y="-147" font-size="12" fill="black" dy="0em">Shaoheng</text>
<rect x="180" y="-292" width="117" height="65" fill="#ffffff" stroke-width="2" stroke="black" />
<text x="185" y="-280" font-size="12" fill="black" dy="0em">Team Lectern</text>
<text x="185" y="-268" font-size="12" fill="black" dy="0em">Kyla</text>
<text x="185" y="-256" font-size="12" fill="black" dy="0em">Gustav</text>
<text x="185" y="-244" font-size="12" fill="black" dy="0em">Jacy</text>
<text x="185" y="-232" font-size="12" fill="black" dy="0em">Mackenzie</text>
<text x="5" y="-330" font-size="12" fill="black" dy="0em">Friday, 6 October</text>
</svg>