<?xml version="1.0" encoding="utf-8"?>
<!-- Generator: Adobe Illustrator 26.3.1, SVG Export Plug-In . SVG Version: 6.00 Build 0)  -->
<svg version="1.1" id="Layer_1" xmlns="http://www.w3.org/2000/svg" xmlns:xlink="http://www.w3.org/1999/xlink" x="0px" y="0px"
	 viewBox="0 0 380 350" style="enable-background:new 0 0 380 350;" xml:space="preserve">
<style type="text/css">
	.st0{fill:#FFFFFF;stroke:#000000;stroke-width:2;}
	.st1{font-family:'ArialMT';}
	.st2{font-size:12px;}
</style>
<rect x="200" y="53" class="st0" width="117" height="70"/>
<text transform="matrix(1 0 0 1 205 70)" class="st1 st2">Team Lectern</text>
<text transform="matrix(1 0 0 1 205 82)" class="st1 st2">Brady</text>
<text transform="matrix(1 0 0 1 205 94.1436)" class="st1 st2">Sai</text>
<text transform="matrix(1 0 0 1 205 106.1436)" class="st1 st2">Savannah</text>
<rect x="35" y="223" class="st0" width="117" height="70"/>
<text transform="matrix(1 0 0 1 40 240)" class="st1 st2">Team Door</text>
<text transform="matrix(1 0 0 1 40 252)" class="st1 st2">Manuel</text>
<text transform="matrix(1 0 0 1 40 264)" class="st1 st2">Zhen</text>
<text transform="matrix(1 0 0 1 40 276)" class="st1 st2">Jaewook</text>
<text transform="matrix(1 0 0 1 40 288)" class="st1 st2">Ian</text>
<rect x="200" y="223" class="st0" width="117" height="70"/>
<text transform="matrix(1 0 0 1 205 240)" class="st1 st2">Team Window</text>
<text transform="matrix(1 0 0 1 205 252)" class="st1 st2">Yuna</text>
<text transform="matrix(1 0 0 1 205 264)" class="st1 st2">Jovan</text>
<text transform="matrix(1 0 0 1 205 276)" class="st1 st2">Yeon</text>
<text transform="matrix(1 0 0 1 205 288)" class="st1 st2">Cameron L</text>
<rect x="35" y="53" class="st0" width="117" height="70"/>
<text transform="matrix(1 0 0 1 40 70)" class="st1 st2">Team Whiteboard</text>
<text transform="matrix(1 0 0 1 40 82)" class="st1 st2">Matthew D</text>
<text transform="matrix(1 0 0 1 40 94)" class="st1 st2">Cameron M</text>
<text transform="matrix(1 0 0 1 40 106)" class="st1 st2">Leon</text>
<text transform="matrix(1 0 0 1 40 118)" class="st1 st2">Matthew H</text>
<rect x="125" y="138" class="st0" width="117" height="70"/>
<text transform="matrix(1 0 0 1 130 155)" class="st1 st2">Team Center</text>
<text transform="matrix(1 0 0 1 130 167)" class="st1 st2">Nima</text>
<text transform="matrix(1 0 0 1 130 179)" class="st1 st2">Lorenzo</text>
<text transform="matrix(1 0 0 1 130 191)" class="st1 st2">Nick</text>
<text transform="matrix(1 0 0 1 5 20)" class="st1 st2">Monday, 26 September</text>
<text transform="matrix(1 0 0 1 129.2753 203.0505)" class="st1 st2">Nora</text>
<text transform="matrix(1 0 0 1 204.9997 118.1318)" class="st1 st2">Allen</text>
<text transform="matrix(1 0 0 1 280.2648 116.1109)" class="st1 st2">Karan</text>
</svg>
